<?xml version="1.0" encoding="UTF-8" standalone="no"?>
<!-- Created with Inkscape (http://www.inkscape.org/) -->
<svg xmlns:dc="http://purl.org/dc/elements/1.1/" xmlns:cc="http://creativecommons.org/ns#" xmlns:rdf="http://www.w3.org/1999/02/22-rdf-syntax-ns#" xmlns:svg="http://www.w3.org/2000/svg" xmlns="http://www.w3.org/2000/svg" xmlns:sodipodi="http://sodipodi.sourceforge.net/DTD/sodipodi-0.dtd" xmlns:inkscape="http://www.inkscape.org/namespaces/inkscape" width="423.96301" height="120.00002" id="svg3681" version="1.1" inkscape:version="0.48.2 r9819" sodipodi:docname="logo-lightbg-large.svg">
  <defs id="defs3683"/>
  <sodipodi:namedview id="base" pagecolor="#ffffff" bordercolor="#666666" borderopacity="1.0" inkscape:pageopacity="0.0" inkscape:pageshadow="2" inkscape:zoom="0.7" inkscape:cx="287.60073" inkscape:cy="-5.1390939" inkscape:document-units="px" inkscape:current-layer="layer1" showgrid="false" fit-margin-top="20" fit-margin-left="20" fit-margin-right="20" fit-margin-bottom="20" inkscape:window-width="932" inkscape:window-height="787" inkscape:window-x="2627" inkscape:window-y="365" inkscape:window-maximized="0"/>
  <metadata id="metadata3686">
    <rdf:RDF>
      <cc:Work rdf:about="">
        <dc:format>image/svg+xml</dc:format>
        <dc:type rdf:resource="http://purl.org/dc/dcmitype/StillImage"/>
        <dc:title/>
      </cc:Work>
    </rdf:RDF>
  </metadata>
  <g inkscape:label="Layer 1" inkscape:groupmode="layer" id="layer1" transform="translate(-163.01849,-472.36217)">
    <g style="fill:#333333;fill-opacity:1;display:inline" id="g3200" transform="matrix(1.4545702,0,0,1.4545702,-55.946605,-246.41232)">
      <path inkscape:export-ydpi="88.292778" inkscape:export-xdpi="88.292778" inkscape:export-filename="/ssh/nebula/public_html/temp/xubuntu/web_improvements/wp-content/themes/xubuntu-wp/images/xubuntu-logo.png" inkscape:connector-curvature="0" d="m 187.63909,562.15059 c -0.45671,-0.91338 -1.01719,-1.93054 -1.68144,-3.05151 -0.6643,-1.12096 -1.39085,-2.26268 -2.17964,-3.42517 -0.78886,-1.20398 -1.59844,-2.38722 -2.42877,-3.54971 -0.83036,-1.16247 -1.63994,-2.26267 -2.42875,-3.30061 -0.78883,1.03794 -1.59842,2.1589 -2.42874,3.36288 -0.83036,1.1625 -1.63994,2.34573 -2.42876,3.54973 -0.74731,1.16247 -1.45311,2.3042 -2.11738,3.42515 -0.66427,1.12097 -1.22475,2.11738 -1.68143,2.98924 l -5.97847,0 c 1.4531,-2.82316 3.17606,-5.68784 5.16889,-8.59405 2.03432,-2.9477 4.04789,-5.75011 6.04073,-8.40722 l -10.71142,-15.38209 6.53895,0 7.72219,11.33418 7.78446,-11.33418 6.16529,0 -10.46231,15.00844 c 1.9928,2.69863 4.02713,5.5633 6.10301,8.59405 2.11734,2.98924 3.90258,5.91619 5.35572,8.78087 l -6.35213,0" style="font-size:49.49238586px;font-style:normal;font-weight:normal;fill:#333333;fill-opacity:1;stroke:none;display:inline;font-family:ubuntubeta;-inkscape-font-specification:ubuntubeta" id="path2826"/>
      <path inkscape:export-ydpi="88.292778" inkscape:export-xdpi="88.292778" inkscape:export-filename="/ssh/nebula/public_html/temp/xubuntu/web_improvements/wp-content/themes/xubuntu-wp/images/xubuntu-logo.png" inkscape:connector-curvature="0" d="m 223.6765,561.21645 c -1.32858,0.33214 -3.09305,0.68503 -5.29344,1.05869 -2.15892,0.37365 -4.6707,0.56048 -7.53536,0.56048 -2.49105,0 -4.58765,-0.35289 -6.28984,-1.05868 -1.70221,-0.74731 -3.07228,-1.78524 -4.1102,-3.11379 -1.03793,-1.32854 -1.78523,-2.88544 -2.24192,-4.67067 -0.45669,-1.82675 -0.68504,-3.84033 -0.68504,-6.04075 l 0,-18.1845 5.79165,0 0,16.93899 c -2e-5,3.94413 0.62275,6.7673 1.86826,8.46949 1.2455,1.70221 3.34212,2.55331 6.28985,2.5533 0.62274,10e-6 1.26625,-0.0207 1.93055,-0.0623 0.66425,-0.0415 1.287,-0.083 1.86827,-0.12454 0.58121,-0.083 1.10018,-0.1453 1.55689,-0.18683 0.49819,-0.083 0.85108,-0.16606 1.05868,-0.24911 l 0,-27.33902 5.79165,0 0,31.44922" style="font-size:49.49238586px;font-style:normal;font-weight:normal;fill:#333333;fill-opacity:1;stroke:none;display:inline;font-family:ubuntubeta;-inkscape-font-specification:ubuntubeta" id="path2828"/>
      <path inkscape:export-ydpi="88.292778" inkscape:export-xdpi="88.292778" inkscape:export-filename="/ssh/nebula/public_html/temp/xubuntu/web_improvements/wp-content/themes/xubuntu-wp/images/xubuntu-logo.png" inkscape:connector-curvature="0" d="m 235.29792,531.19957 c 0.70578,-0.45666 1.76447,-0.9341 3.17606,-1.43234 1.45308,-0.49818 3.11377,-0.74728 4.98206,-0.74731 2.32493,3e-5 4.38003,0.41521 6.16529,1.24552 1.82673,0.83036 3.36286,1.99284 4.6084,3.48744 1.24548,1.49464 2.17963,3.27987 2.8024,5.3557 0.66425,2.07588 0.99639,4.35932 0.99641,6.85033 -2e-5,2.61559 -0.39444,4.98207 -1.18322,7.09943 -0.74735,2.07587 -1.82678,3.84033 -3.23835,5.29343 -1.41161,1.4531 -3.11381,2.57406 -5.1066,3.36289 -1.99285,0.78883 -4.23476,1.18324 -6.72578,1.18324 -2.69863,0 -5.08586,-0.18683 -7.16169,-0.56049 -2.07588,-0.37365 -3.77808,-0.74731 -5.10662,-1.12096 l 0,-46.39539 5.79164,-0.99641 0,17.37492 m 0,25.90668 c 0.58123,0.16608 1.39081,0.33215 2.42875,0.49821 1.07943,0.12456 2.40798,0.18684 3.98566,0.18683 3.11375,10e-6 5.60477,-1.01716 7.47307,-3.05151 1.86824,-2.07584 2.80238,-5.0028 2.8024,-8.78087 -2e-5,-1.66067 -0.16609,-3.21756 -0.4982,-4.67068 -0.33217,-1.45308 -0.87188,-2.69859 -1.61917,-3.73655 -0.74733,-1.07941 -1.72298,-1.90975 -2.92696,-2.49102 -1.1625,-0.62273 -2.57407,-0.93411 -4.23473,-0.93413 -1.57768,2e-5 -3.03078,0.26988 -4.35931,0.80958 -1.32857,0.53975 -2.34573,1.10023 -3.05151,1.68145 l 0,20.48869" style="font-size:49.49238586px;font-style:normal;font-weight:normal;fill:#333333;fill-opacity:1;stroke:none;display:inline;font-family:ubuntubeta;-inkscape-font-specification:ubuntubeta" id="path2830"/>
      <path inkscape:export-ydpi="88.292778" inkscape:export-xdpi="88.292778" inkscape:export-filename="/ssh/nebula/public_html/temp/xubuntu/web_improvements/wp-content/themes/xubuntu-wp/images/xubuntu-logo.png" inkscape:connector-curvature="0" d="m 289.24734,561.21645 c -1.32858,0.33214 -3.09305,0.68503 -5.29343,1.05869 -2.15892,0.37365 -4.67071,0.56048 -7.53536,0.56048 -2.49104,0 -4.58766,-0.35289 -6.28984,-1.05868 -1.70222,-0.74731 -3.07228,-1.78524 -4.1102,-3.11379 -1.03794,-1.32854 -1.78524,-2.88544 -2.24192,-4.67067 -0.4567,-1.82675 -0.68503,-3.84033 -0.68503,-6.04075 l 0,-18.1845 5.79163,0 0,16.93899 c -1e-5,3.94413 0.62275,6.7673 1.86827,8.46949 1.24551,1.70221 3.34211,2.55331 6.28984,2.5533 0.62274,10e-6 1.26626,-0.0207 1.93055,-0.0623 0.66426,-0.0415 1.28701,-0.083 1.86827,-0.12454 0.58122,-0.083 1.10018,-0.1453 1.5569,-0.18683 0.49818,-0.083 0.85108,-0.16606 1.05869,-0.24911 l 0,-27.33902 5.79163,0 0,31.44922" style="font-size:49.49238586px;font-style:normal;font-weight:normal;fill:#333333;fill-opacity:1;stroke:none;display:inline;font-family:ubuntubeta;-inkscape-font-specification:ubuntubeta" id="path2832"/>
      <path inkscape:export-ydpi="88.292778" inkscape:export-xdpi="88.292778" inkscape:export-filename="/ssh/nebula/public_html/temp/xubuntu/web_improvements/wp-content/themes/xubuntu-wp/images/xubuntu-logo.png" inkscape:connector-curvature="0" d="m 294.31033,530.70136 c 1.32853,-0.3321 3.09302,-0.685 5.29343,-1.05868 2.20039,-0.37363 4.73293,-0.56045 7.59763,-0.56049 2.57404,4e-5 4.71218,0.3737 6.41441,1.12096 1.70217,0.70583 3.05147,1.72299 4.04791,3.05151 1.0379,1.28707 1.76445,2.84396 2.17966,4.67069 0.41513,1.82677 0.62272,3.84034 0.62275,6.04074 l 0,18.1845 -5.79164,0 0,-16.93898 c -3e-5,-1.99282 -0.14533,-3.69501 -0.43593,-5.10662 -0.24913,-1.41156 -0.68506,-2.55328 -1.3078,-3.42516 -0.62277,-0.87184 -1.45311,-1.49459 -2.49101,-1.86827 -1.03795,-0.41515 -2.32499,-0.62273 -3.8611,-0.62276 -0.62277,3e-5 -1.26629,0.0208 -1.93054,0.0622 -0.66429,0.0415 -1.30782,0.10382 -1.93056,0.18682 -0.58125,0.0415 -1.12097,0.10382 -1.61916,0.18683 -0.4567,0.083 -0.78883,0.14534 -0.99641,0.18682 l 0,27.33904 -5.79164,0 0,-31.44923" style="font-size:49.49238586px;font-style:normal;font-weight:normal;fill:#333333;fill-opacity:1;stroke:none;display:inline;font-family:ubuntubeta;-inkscape-font-specification:ubuntubeta" id="path2834"/>
      <path inkscape:export-ydpi="88.292778" inkscape:export-xdpi="88.292778" inkscape:export-filename="/ssh/nebula/public_html/temp/xubuntu/web_improvements/wp-content/themes/xubuntu-wp/images/xubuntu-logo.png" inkscape:connector-curvature="0" d="m 331.32076,529.76723 12.26831,0 0,4.8575 -12.26831,0 0,14.94617 c -2e-5,1.61918 0.12456,2.96848 0.37365,4.04792 0.24909,1.03793 0.62274,1.86828 1.12096,2.49103 0.49819,0.58124 1.12095,0.99641 1.86827,1.24551 0.74729,0.2491 1.61915,0.37366 2.61558,0.37365 1.7437,10e-6 3.13453,-0.18682 4.17247,-0.56047 1.07942,-0.41517 1.82674,-0.70579 2.24193,-0.87187 l 1.12095,4.79523 c -0.58126,0.29063 -1.59842,0.64352 -3.05151,1.05869 -1.4531,0.45669 -3.11379,0.68503 -4.98205,0.68503 -2.20041,0 -4.02717,-0.26986 -5.48025,-0.80958 -1.4116,-0.58124 -2.55331,-1.43234 -3.42517,-2.55331 -0.87186,-1.12096 -1.49462,-2.49101 -1.86827,-4.11019 -0.33213,-1.66067 -0.49821,-3.57047 -0.49821,-5.72937 l 0,-28.89592 5.79165,-0.9964 0,10.02638" style="font-size:49.49238586px;font-style:normal;font-weight:normal;fill:#333333;fill-opacity:1;stroke:none;display:inline;font-family:ubuntubeta;-inkscape-font-specification:ubuntubeta" id="path2836"/>
      <path inkscape:export-ydpi="88.292778" inkscape:export-xdpi="88.292778" inkscape:export-filename="/ssh/nebula/public_html/temp/xubuntu/web_improvements/wp-content/themes/xubuntu-wp/images/xubuntu-logo.png" inkscape:connector-curvature="0" d="m 375.2866,561.21645 c -1.32858,0.33214 -3.09304,0.68503 -5.29343,1.05869 -2.15892,0.37365 -4.6707,0.56048 -7.53536,0.56048 -2.49105,0 -4.58765,-0.35289 -6.28984,-1.05868 -1.70221,-0.74731 -3.07228,-1.78524 -4.1102,-3.11379 -1.03793,-1.32854 -1.78525,-2.88544 -2.24193,-4.67067 -0.45668,-1.82675 -0.68504,-3.84033 -0.68502,-6.04075 l 0,-18.1845 5.79163,0 0,16.93899 c -1e-5,3.94413 0.62275,6.7673 1.86827,8.46949 1.2455,1.70221 3.34211,2.55331 6.28985,2.5533 0.62274,10e-6 1.26624,-0.0207 1.93055,-0.0623 0.66425,-0.0415 1.287,-0.083 1.86826,-0.12454 0.58122,-0.083 1.10019,-0.1453 1.5569,-0.18683 0.49818,-0.083 0.85107,-0.16606 1.05869,-0.24911 l 0,-27.33902 5.79163,0 0,31.44922" style="font-size:49.49238586px;font-style:normal;font-weight:normal;fill:#333333;fill-opacity:1;stroke:none;display:inline;font-family:ubuntubeta;-inkscape-font-specification:ubuntubeta" id="path2838"/>
    </g>
    <g id="g3637" transform="matrix(1.0260856,0,0,1.0260856,162.70376,134.63796)">
      <path inkscape:export-ydpi="92.220436" inkscape:export-xdpi="92.220436" inkscape:export-filename="/ssh/nebula/public_html/temp/xubuntu/precise_logo/logo_bigsizes.png" transform="matrix(2.4053691,0,0,2.4053691,-259.95974,532.25414)" d="m 271.87501,-63.035713 c 0,7.34736 -5.95621,13.303572 -13.30357,13.303572 -7.34736,0 -13.30357,-5.956212 -13.30357,-13.303572 0,-7.34736 5.95621,-13.303572 13.30357,-13.303572 7.34736,0 13.30357,5.956212 13.30357,13.303572 z" sodipodi:ry="13.303572" sodipodi:rx="13.303572" sodipodi:cy="-63.035713" sodipodi:cx="258.57144" id="path3354" style="fill:#0044aa;fill-opacity:1;stroke:none" sodipodi:type="arc"/>
      <g inkscape:export-ydpi="92.220436" inkscape:export-xdpi="92.220436" inkscape:export-filename="/ssh/nebula/public_html/temp/xubuntu/precise_logo/logo_bigsizes.png" transform="matrix(1.6,0,0,1.6,-197.58929,-247.94132)" id="g3372">
        <g id="g3368" transform="translate(0.44642857,-0.04464286)">
          <path d="m 355.84375,380.40625 c -0.0699,0.0404 -0.0811,0.0614 -0.0625,0.0312 -0.67912,1.14393 -0.69662,2.65289 -1,4 a 0.4982215,0.4982215 0 0 1 0,0.0312 c -0.005,0.0197 0.005,0.0429 0,0.0625 -0.14726,1.44619 -0.62399,2.92107 -0.28125,4.3125 a 0.4982215,0.4982215 0 0 1 0.0312,0.0937 c 0.003,0.0101 -0.003,0.0212 0,0.0312 0.005,0.008 -0.005,0.0237 0,0.0312 0.006,0.009 0.0253,-0.008 0.0312,0 0.0731,0.10058 0.16238,0.1759 0.21875,0.1875 0.0403,0.008 0.11021,0.004 0.25,-0.0937 0.15127,-0.1053 0.23683,-0.31627 0.28125,-0.59375 a 0.4982215,0.4982215 0 0 1 0.0625,-0.0937 0.4982215,0.4982215 0 0 1 0,-0.0312 0.4982215,0.4982215 0 0 1 0.0312,-0.0937 0.4982215,0.4982215 0 0 1 0.0312,-0.0312 c 0.59834,-2.38691 1.00327,-4.89182 0.84375,-7.34375 -0.0204,-0.12189 -0.0428,-0.2068 -0.15625,-0.34375 -0.0753,-0.0907 -0.13704,-0.14279 -0.15625,-0.15625 -0.0192,-0.0135 0.007,-0.004 -0.0625,0 a 0.4982215,0.4982215 0 0 1 -0.0312,0 c -0.0257,0.003 -0.0158,-6.1e-4 -0.0312,0 z" id="path3366" style="fill:#ffffff;fill-opacity:1;stroke:none" inkscape:original="M 355.71875 379.90625 C 355.68125 379.91125 355.65195 379.93505 355.59375 379.96875 C 355.47738 380.03605 355.39105 380.1111 355.34375 380.1875 C 354.55632 381.51387 354.58195 383.13517 354.28125 384.40625 A 0.41364053 0.41365909 0 0 0 354.28125 384.46875 C 354.13756 385.87984 353.5878 387.50263 354.0625 389.125 A 0.41364053 0.41365909 0 0 0 354.09375 389.15625 A 0.41364053 0.41365909 0 0 0 354.09375 389.21875 C 354.22466 389.44765 354.44007 389.6366 354.6875 389.6875 C 354.93495 389.7377 355.14523 389.6164 355.3125 389.5 C 355.61157 389.29182 355.7553 388.95103 355.8125 388.59375 L 355.875 388.59375 L 355.875 388.5 C 356.49625 386.05054 356.94871 383.449 356.78125 380.875 A 0.41364053 0.41365909 0 0 0 356.78125 380.8125 C 356.74305 380.58377 356.63856 380.41727 356.5 380.25 C 356.36183 380.08363 356.21445 379.88625 355.875 379.90625 A 0.41364053 0.41365909 0 0 0 355.8125 379.90625 C 355.7934 379.90825 355.75625 379.90125 355.71875 379.90625 z " inkscape:radius="-0.49817169" sodipodi:type="inkscape:offset"/>
          <path transform="translate(-0.49107143,-0.26785714)" d="m 361.84375,381.84375 c -1.03636,0.50365 -1.56686,1.70537 -2.28125,2.6875 a 0.46681363,0.46681363 0 0 1 -0.0312,0.0937 0.46681363,0.46681363 0 0 1 -0.0312,0.0625 c -0.90569,1.60511 -2.06123,3.20738 -2.1875,5.0625 -7.1e-4,0.0105 6.5e-4,0.0208 0,0.0312 0.0138,0.27995 0.17412,0.43198 0.34375,0.46875 0.16658,0.036 0.47447,-0.0594 0.59375,-0.25 a 0.46681363,0.46681363 0 0 1 0.0312,-0.0312 0.46681363,0.46681363 0 0 1 0,-0.0312 0.46681363,0.46681363 0 0 1 0,-0.0312 c 1.646,-2.26173 2.88416,-4.92489 3.90625,-7.53125 a 0.46681363,0.46681363 0 0 1 0,-0.0312 c 0.0707,-0.17113 0.0941,-0.21493 0.0312,-0.34375 -0.0185,-0.0381 -0.21237,-0.16871 -0.3125,-0.15625 -0.0163,0.007 -0.0465,-0.008 -0.0625,0 z" id="path3364" style="fill:#ffffff;fill-opacity:1;stroke:none" inkscape:original="M 361.71875 381.375 C 360.36735 381.97973 359.80389 383.48371 359.09375 384.40625 A 0.35934087 0.35935699 0 0 0 359.09375 384.46875 C 358.2047 386.04438 356.96957 387.70963 356.84375 389.75 C 356.84375 390.25018 357.15979 390.63145 357.5625 390.71875 C 357.94157 390.80055 358.42044 390.62675 358.65625 390.25 C 358.67445 390.23 358.64175 390.2093 358.65625 390.1875 C 360.33963 387.8744 361.59578 385.15579 362.625 382.53125 C 362.72864 382.28034 362.74863 382.0347 362.625 381.78125 C 362.50136 381.52707 362.16517 381.335 361.84375 381.375 A 0.35934087 0.35935699 0 0 0 361.78125 381.375 L 361.71875 381.375 z " inkscape:radius="-0.46676695" sodipodi:type="inkscape:offset"/>
        </g>
        <path inkscape:connector-curvature="0" style="fill:#ffffff;fill-opacity:1;stroke:none" d="m 345.66985,382.2774 c -0.16726,0.0311 -0.4161,0.1809 -0.59375,0.25 -0.62832,0.23837 -0.975,0.77698 -1.125,1.40625 -0.15274,0.64382 -0.10183,1.36084 0,2.09375 0.10181,0.73145 0.24752,1.48649 0.40625,2.0625 0.13645,0.49836 0.23415,0.7408 0.28125,0.90625 l 0,0.125 c 0,0.0545 -0.0261,0.05 -0.0625,0.0937 -0.02,0.0109 0.02,0.0625 0,0.0625 -0.0453,0.0346 -0.0999,0.0625 -0.15625,0.0625 -0.11101,0.007 -0.19778,-0.0334 -0.3125,-0.0625 -0.0782,-0.0181 -0.17995,-0.0807 -0.15625,-0.0625 -0.0363,-0.0218 -0.1013,-0.0243 -0.125,-0.0625 0,0.0146 0.0219,0.0143 0,-0.0312 -0.0254,-0.0473 -0.0537,-0.1664 -0.0937,-0.25 -0.0891,-0.18946 -0.15908,-0.40895 -0.28125,-0.6875 -0.24381,-0.55472 -0.55754,-1.23609 -0.90625,-1.875 -0.34999,-0.64145 -0.76223,-1.22354 -1.21875,-1.625 -0.22817,-0.20054 -0.50982,-0.40155 -0.78125,-0.46875 -0.26199,-0.0655 -0.57287,-0.01 -0.84375,0.125 -0.69997,0.38836 -1.09619,1.02422 -1.25,1.6875 -0.15456,0.67346 -0.0815,1.44899 0.0312,2.125 0.11454,0.67454 0.29189,1.23077 0.40625,1.6875 0.049,0.19254 0.1087,0.37235 0.125,0.46875 0,0.0955 -0.0389,0.3448 -0.0625,0.4375 -0.11818,0.40928 -0.40559,1.09375 -0.40625,1.09375 0,0 -5.45294,14.48293 6.25,13.46875 0.0964,-0.007 0.31535,-0.0625 0.40625,-0.0625 2.29827,-0.46272 4.47308,-1.15769 6.40625,-1.9375 0.3798,-0.182 0.87805,-0.36282 1.4375,-0.625 1.11885,-0.52418 2.52451,-1.19587 3.875,-1.9375 1.35103,-0.74219 2.60454,-1.533 3.5625,-2.375 0.9596,-0.84327 1.65997,-1.76731 1.53125,-2.6875 -0.20364,-1.48345 -1.18879,-2.58587 -2.5,-3.4375 -1.31613,-0.85473 -2.95728,-1.44464 -4.59375,-1.875 -1.63576,-0.43018 -3.2241,-0.78002 -4.4375,-0.96875 -0.60652,-0.0945 -1.1749,-0.122 -1.53125,-0.1875 -0.10544,-0.0181 -0.16175,-0.0443 -0.21875,-0.0625 -0.0307,-0.004 -0.0334,-0.0131 -0.0625,-0.0312 -0.0363,-0.0218 -0.1031,-0.0243 -0.125,-0.0625 -0.02,-0.0363 0,-0.0832 0,-0.125 0,-0.0163 -1.7e-4,-0.0407 0,-0.0625 l 0,-0.90625 c -0.02,-0.748 -0.064,-1.73553 -0.21875,-2.65625 -0.15637,-0.92455 -0.39754,-1.80879 -0.90625,-2.40625 -0.30235,-0.35545 -0.73038,-0.5887 -1.25,-0.625 -0.15636,-0.0182 -0.3311,-0.0309 -0.5,0 z" id="path3302"/>
      </g>
    </g>
  </g>
</svg>