<?xml version="1.0" encoding="UTF-8" standalone="no"?>
<!-- Created with Inkscape (http://www.inkscape.org/) -->

<svg
   xmlns:dc="http://purl.org/dc/elements/1.1/"
   xmlns:cc="http://creativecommons.org/ns#"
   xmlns:rdf="http://www.w3.org/1999/02/22-rdf-syntax-ns#"
   xmlns:svg="http://www.w3.org/2000/svg"
   xmlns="http://www.w3.org/2000/svg"
   xmlns:sodipodi="http://sodipodi.sourceforge.net/DTD/sodipodi-0.dtd"
   xmlns:inkscape="http://www.inkscape.org/namespaces/inkscape"
   width="423.96301"
   height="120.00002"
   id="svg3681"
   version="1.1"
   inkscape:version="0.92.1 r15371"
   sodipodi:docname="logo_black.svg">
  <defs
     id="defs3683" />
  <sodipodi:namedview
     id="base"
     pagecolor="#ffffff"
     bordercolor="#666666"
     borderopacity="1.0"
     inkscape:pageopacity="0.0"
     inkscape:pageshadow="2"
     inkscape:zoom="1.979899"
     inkscape:cx="327.11419"
     inkscape:cy="33.121033"
     inkscape:document-units="px"
     inkscape:current-layer="layer1"
     showgrid="false"
     fit-margin-top="20"
     fit-margin-left="20"
     fit-margin-right="20"
     fit-margin-bottom="20"
     inkscape:window-width="1920"
     inkscape:window-height="1151"
     inkscape:window-x="0"
     inkscape:window-y="0"
     inkscape:window-maximized="1" />
  <metadata
     id="metadata3686">
    <rdf:RDF>
      <cc:Work
         rdf:about="">
        <dc:format>image/svg+xml</dc:format>
        <dc:type
           rdf:resource="http://purl.org/dc/dcmitype/StillImage" />
        <dc:title />
      </cc:Work>
    </rdf:RDF>
  </metadata>
  <g
     inkscape:label="Layer 1"
     inkscape:groupmode="layer"
     id="layer1"
     transform="translate(-163.01849,-472.36217)">
    <g
       style="display:inline;fill:#333333;fill-opacity:1"
       id="g3200"
       transform="matrix(1.4545702,0,0,1.4545702,-55.946605,-246.41232)">
      <path
         inkscape:export-ydpi="88.292778"
         inkscape:export-xdpi="88.292778"
         inkscape:export-filename="/ssh/nebula/public_html/temp/xubuntu/web_improvements/wp-content/themes/xubuntu-wp/images/xubuntu-logo.png"
         inkscape:connector-curvature="0"
         d="m 187.63909,562.15059 c -0.45671,-0.91338 -1.01719,-1.93054 -1.68144,-3.05151 -0.6643,-1.12096 -1.39085,-2.26268 -2.17964,-3.42517 -0.78886,-1.20398 -1.59844,-2.38722 -2.42877,-3.54971 -0.83036,-1.16247 -1.63994,-2.26267 -2.42875,-3.30061 -0.78883,1.03794 -1.59842,2.1589 -2.42874,3.36288 -0.83036,1.1625 -1.63994,2.34573 -2.42876,3.54973 -0.74731,1.16247 -1.45311,2.3042 -2.11738,3.42515 -0.66427,1.12097 -1.22475,2.11738 -1.68143,2.98924 h -5.97847 c 1.4531,-2.82316 3.17606,-5.68784 5.16889,-8.59405 2.03432,-2.9477 4.04789,-5.75011 6.04073,-8.40722 l -10.71142,-15.38209 h 6.53895 l 7.72219,11.33418 7.78446,-11.33418 h 6.16529 l -10.46231,15.00844 c 1.9928,2.69863 4.02713,5.5633 6.10301,8.59405 2.11734,2.98924 3.90258,5.91619 5.35572,8.78087 h -6.35213"
         style="font-style:normal;font-weight:normal;font-size:49.49238586px;font-family:ubuntubeta;-inkscape-font-specification:ubuntubeta;display:inline;fill:#333333;fill-opacity:1;stroke:none"
         id="path2826" />
      <path
         inkscape:export-ydpi="88.292778"
         inkscape:export-xdpi="88.292778"
         inkscape:export-filename="/ssh/nebula/public_html/temp/xubuntu/web_improvements/wp-content/themes/xubuntu-wp/images/xubuntu-logo.png"
         inkscape:connector-curvature="0"
         d="m 223.6765,561.21645 c -1.32858,0.33214 -3.09305,0.68503 -5.29344,1.05869 -2.15892,0.37365 -4.6707,0.56048 -7.53536,0.56048 -2.49105,0 -4.58765,-0.35289 -6.28984,-1.05868 -1.70221,-0.74731 -3.07228,-1.78524 -4.1102,-3.11379 -1.03793,-1.32854 -1.78523,-2.88544 -2.24192,-4.67067 -0.45669,-1.82675 -0.68504,-3.84033 -0.68504,-6.04075 v -18.1845 h 5.79165 v 16.93899 c -2e-5,3.94413 0.62275,6.7673 1.86826,8.46949 1.2455,1.70221 3.34212,2.55331 6.28985,2.5533 0.62274,10e-6 1.26625,-0.0207 1.93055,-0.0623 0.66425,-0.0415 1.287,-0.083 1.86827,-0.12454 0.58121,-0.083 1.10018,-0.1453 1.55689,-0.18683 0.49819,-0.083 0.85108,-0.16606 1.05868,-0.24911 v -27.33902 h 5.79165 v 31.44922"
         style="font-style:normal;font-weight:normal;font-size:49.49238586px;font-family:ubuntubeta;-inkscape-font-specification:ubuntubeta;display:inline;fill:#333333;fill-opacity:1;stroke:none"
         id="path2828" />
      <path
         inkscape:export-ydpi="88.292778"
         inkscape:export-xdpi="88.292778"
         inkscape:export-filename="/ssh/nebula/public_html/temp/xubuntu/web_improvements/wp-content/themes/xubuntu-wp/images/xubuntu-logo.png"
         inkscape:connector-curvature="0"
         d="m 235.29792,531.19957 c 0.70578,-0.45666 1.76447,-0.9341 3.17606,-1.43234 1.45308,-0.49818 3.11377,-0.74728 4.98206,-0.74731 2.32493,3e-5 4.38003,0.41521 6.16529,1.24552 1.82673,0.83036 3.36286,1.99284 4.6084,3.48744 1.24548,1.49464 2.17963,3.27987 2.8024,5.3557 0.66425,2.07588 0.99639,4.35932 0.99641,6.85033 -2e-5,2.61559 -0.39444,4.98207 -1.18322,7.09943 -0.74735,2.07587 -1.82678,3.84033 -3.23835,5.29343 -1.41161,1.4531 -3.11381,2.57406 -5.1066,3.36289 -1.99285,0.78883 -4.23476,1.18324 -6.72578,1.18324 -2.69863,0 -5.08586,-0.18683 -7.16169,-0.56049 -2.07588,-0.37365 -3.77808,-0.74731 -5.10662,-1.12096 v -46.39539 l 5.79164,-0.99641 v 17.37492 m 0,25.90668 c 0.58123,0.16608 1.39081,0.33215 2.42875,0.49821 1.07943,0.12456 2.40798,0.18684 3.98566,0.18683 3.11375,10e-6 5.60477,-1.01716 7.47307,-3.05151 1.86824,-2.07584 2.80238,-5.0028 2.8024,-8.78087 -2e-5,-1.66067 -0.16609,-3.21756 -0.4982,-4.67068 -0.33217,-1.45308 -0.87188,-2.69859 -1.61917,-3.73655 -0.74733,-1.07941 -1.72298,-1.90975 -2.92696,-2.49102 -1.1625,-0.62273 -2.57407,-0.93411 -4.23473,-0.93413 -1.57768,2e-5 -3.03078,0.26988 -4.35931,0.80958 -1.32857,0.53975 -2.34573,1.10023 -3.05151,1.68145 v 20.48869"
         style="font-style:normal;font-weight:normal;font-size:49.49238586px;font-family:ubuntubeta;-inkscape-font-specification:ubuntubeta;display:inline;fill:#333333;fill-opacity:1;stroke:none"
         id="path2830" />
      <path
         inkscape:export-ydpi="88.292778"
         inkscape:export-xdpi="88.292778"
         inkscape:export-filename="/ssh/nebula/public_html/temp/xubuntu/web_improvements/wp-content/themes/xubuntu-wp/images/xubuntu-logo.png"
         inkscape:connector-curvature="0"
         d="m 289.24734,561.21645 c -1.32858,0.33214 -3.09305,0.68503 -5.29343,1.05869 -2.15892,0.37365 -4.67071,0.56048 -7.53536,0.56048 -2.49104,0 -4.58766,-0.35289 -6.28984,-1.05868 -1.70222,-0.74731 -3.07228,-1.78524 -4.1102,-3.11379 -1.03794,-1.32854 -1.78524,-2.88544 -2.24192,-4.67067 -0.4567,-1.82675 -0.68503,-3.84033 -0.68503,-6.04075 v -18.1845 h 5.79163 v 16.93899 c -1e-5,3.94413 0.62275,6.7673 1.86827,8.46949 1.24551,1.70221 3.34211,2.55331 6.28984,2.5533 0.62274,10e-6 1.26626,-0.0207 1.93055,-0.0623 0.66426,-0.0415 1.28701,-0.083 1.86827,-0.12454 0.58122,-0.083 1.10018,-0.1453 1.5569,-0.18683 0.49818,-0.083 0.85108,-0.16606 1.05869,-0.24911 v -27.33902 h 5.79163 v 31.44922"
         style="font-style:normal;font-weight:normal;font-size:49.49238586px;font-family:ubuntubeta;-inkscape-font-specification:ubuntubeta;display:inline;fill:#333333;fill-opacity:1;stroke:none"
         id="path2832" />
      <path
         inkscape:export-ydpi="88.292778"
         inkscape:export-xdpi="88.292778"
         inkscape:export-filename="/ssh/nebula/public_html/temp/xubuntu/web_improvements/wp-content/themes/xubuntu-wp/images/xubuntu-logo.png"
         inkscape:connector-curvature="0"
         d="m 294.31033,530.70136 c 1.32853,-0.3321 3.09302,-0.685 5.29343,-1.05868 2.20039,-0.37363 4.73293,-0.56045 7.59763,-0.56049 2.57404,4e-5 4.71218,0.3737 6.41441,1.12096 1.70217,0.70583 3.05147,1.72299 4.04791,3.05151 1.0379,1.28707 1.76445,2.84396 2.17966,4.67069 0.41513,1.82677 0.62272,3.84034 0.62275,6.04074 v 18.1845 h -5.79164 v -16.93898 c -3e-5,-1.99282 -0.14533,-3.69501 -0.43593,-5.10662 -0.24913,-1.41156 -0.68506,-2.55328 -1.3078,-3.42516 -0.62277,-0.87184 -1.45311,-1.49459 -2.49101,-1.86827 -1.03795,-0.41515 -2.32499,-0.62273 -3.8611,-0.62276 -0.62277,3e-5 -1.26629,0.0208 -1.93054,0.0622 -0.66429,0.0415 -1.30782,0.10382 -1.93056,0.18682 -0.58125,0.0415 -1.12097,0.10382 -1.61916,0.18683 -0.4567,0.083 -0.78883,0.14534 -0.99641,0.18682 v 27.33904 h -5.79164 v -31.44923"
         style="font-style:normal;font-weight:normal;font-size:49.49238586px;font-family:ubuntubeta;-inkscape-font-specification:ubuntubeta;display:inline;fill:#333333;fill-opacity:1;stroke:none"
         id="path2834" />
      <path
         inkscape:export-ydpi="88.292778"
         inkscape:export-xdpi="88.292778"
         inkscape:export-filename="/ssh/nebula/public_html/temp/xubuntu/web_improvements/wp-content/themes/xubuntu-wp/images/xubuntu-logo.png"
         inkscape:connector-curvature="0"
         d="m 331.32076,529.76723 h 12.26831 v 4.8575 h -12.26831 v 14.94617 c -2e-5,1.61918 0.12456,2.96848 0.37365,4.04792 0.24909,1.03793 0.62274,1.86828 1.12096,2.49103 0.49819,0.58124 1.12095,0.99641 1.86827,1.24551 0.74729,0.2491 1.61915,0.37366 2.61558,0.37365 1.7437,10e-6 3.13453,-0.18682 4.17247,-0.56047 1.07942,-0.41517 1.82674,-0.70579 2.24193,-0.87187 l 1.12095,4.79523 c -0.58126,0.29063 -1.59842,0.64352 -3.05151,1.05869 -1.4531,0.45669 -3.11379,0.68503 -4.98205,0.68503 -2.20041,0 -4.02717,-0.26986 -5.48025,-0.80958 -1.4116,-0.58124 -2.55331,-1.43234 -3.42517,-2.55331 -0.87186,-1.12096 -1.49462,-2.49101 -1.86827,-4.11019 -0.33213,-1.66067 -0.49821,-3.57047 -0.49821,-5.72937 v -28.89592 l 5.79165,-0.9964 v 10.02638"
         style="font-style:normal;font-weight:normal;font-size:49.49238586px;font-family:ubuntubeta;-inkscape-font-specification:ubuntubeta;display:inline;fill:#333333;fill-opacity:1;stroke:none"
         id="path2836" />
      <path
         inkscape:export-ydpi="88.292778"
         inkscape:export-xdpi="88.292778"
         inkscape:export-filename="/ssh/nebula/public_html/temp/xubuntu/web_improvements/wp-content/themes/xubuntu-wp/images/xubuntu-logo.png"
         inkscape:connector-curvature="0"
         d="m 375.2866,561.21645 c -1.32858,0.33214 -3.09304,0.68503 -5.29343,1.05869 -2.15892,0.37365 -4.6707,0.56048 -7.53536,0.56048 -2.49105,0 -4.58765,-0.35289 -6.28984,-1.05868 -1.70221,-0.74731 -3.07228,-1.78524 -4.1102,-3.11379 -1.03793,-1.32854 -1.78525,-2.88544 -2.24193,-4.67067 -0.45668,-1.82675 -0.68504,-3.84033 -0.68502,-6.04075 v -18.1845 h 5.79163 v 16.93899 c -1e-5,3.94413 0.62275,6.7673 1.86827,8.46949 1.2455,1.70221 3.34211,2.55331 6.28985,2.5533 0.62274,10e-6 1.26624,-0.0207 1.93055,-0.0623 0.66425,-0.0415 1.287,-0.083 1.86826,-0.12454 0.58122,-0.083 1.10019,-0.1453 1.5569,-0.18683 0.49818,-0.083 0.85107,-0.16606 1.05869,-0.24911 v -27.33902 h 5.79163 v 31.44922"
         style="font-style:normal;font-weight:normal;font-size:49.49238586px;font-family:ubuntubeta;-inkscape-font-specification:ubuntubeta;display:inline;fill:#333333;fill-opacity:1;stroke:none"
         id="path2838" />
    </g>
    <g
       transform="translate(1.2e-5,2.8e-5)"
       id="g4502">
      <circle
         style="fill:#0044aa;fill-opacity:1;stroke:none"
         id="path12878"
         inkscape:export-filename="/ssh/nebula/public_html/temp/xubuntu/precise_logo/logo_bigsizes.png"
         inkscape:export-xdpi="92.220436"
         inkscape:export-ydpi="92.220436"
         cx="533.31201"
         cy="526.03162"
         r="32" />
      <path
         sodipodi:nodetypes="ssssssssscsssssssscscs"
         id="path12949"
         d="m 524.01323,511.75418 c -0.4625,2.2954 0.20212,4.92285 1.13125,8.1 0.0561,0.19169 -0.0526,0.43697 -0.15078,0.46555 -0.42186,0.12281 -1.14516,-0.008 -1.28515,-0.29532 -0.72398,-1.48656 -1.06826,-3.00676 -1.91399,-4.47021 -0.58499,-1.01227 -1.19013,-1.97814 -1.91094,-2.63125 -0.87554,-0.79331 -1.56163,-0.94921 -2.49844,-0.55781 -1.18178,0.49374 -1.89573,1.67753 -2.14062,2.73906 -0.24851,1.07726 -0.14454,2.32083 0.0499,3.4 0.22885,1.27015 0.51999,2.27249 0.89419,3.46105 -0.2855,0.84414 -2.00377,5.4771 -2.41919,8.68895 -0.53329,4.12314 -2.03307,16.59864 11.71339,15.21161 5.07024,-0.51159 9.20182,-2.28851 13.11161,-4.11161 1.79168,-0.83544 4.03931,-1.91323 6.2,-3.1 2.16174,-1.18734 4.16719,-2.45288 5.7,-3.8 1.53529,-1.34931 2.65362,-2.82738 2.45,-4.3 -0.32815,-2.3732 -1.90203,-4.13744 -4,-5.5 -2.10578,-1.36762 -5.70144,-2.63847 -8.30017,-3.39775 -3.40982,-0.99625 -6.04956,-1.38349 -9.24983,-1.55762 -0.1792,-3.2423 0.25298,-7.50894 -1.80004,-9.99453 -0.47548,-0.57566 -1.16863,-0.94164 -2,-1 -1.33607,0.0538 -3.15186,0.51911 -3.58119,2.64988 z"
         style="opacity:1;fill:#ffffff;fill-opacity:1;stroke:none"
         inkscape:connector-curvature="0" />
      <path
         sodipodi:nodetypes="scsssss"
         id="path12953"
         d="m 540.15814,517.55141 c -0.0345,0.79864 0.13261,2.52075 1.17912,2.65341 1.24757,0.14747 1.64803,-0.87975 1.78402,-1.68257 0.4328,-2.55508 0.55306,-3.31882 0.76932,-5.63396 0.25488,-2.7286 0.92507,-7.33138 -0.24636,-6.90218 -1.18681,0.43483 -2.12949,4.11133 -2.43828,5.65209 -0.24056,1.20031 -0.98854,4.54184 -1.04782,5.91321 z"
         style="opacity:1;fill:#ffffff;fill-opacity:1;stroke:none"
         inkscape:connector-curvature="0" />
      <path
         inkscape:connector-curvature="0"
         style="opacity:1;fill:#ffffff;fill-opacity:1;stroke:none"
         d="m 545.62298,518.13052 c -0.68341,1.5951 -1.00666,2.97299 -0.0622,3.44107 1.1256,0.55786 2.09845,-0.52228 2.41502,-1.27247 0.95465,-2.26231 1.48311,-3.63198 2.21963,-5.34302 1.08353,-2.51719 3.78793,-7.35256 2.00309,-7.09612 -1.25113,0.17976 -2.934,3.35775 -3.74127,4.70595 -1.04085,1.7316 -1.85,3.26724 -2.83427,5.56459 z"
         id="path12955"
         sodipodi:nodetypes="ssssscs" />
    </g>
  </g>
</svg>
